HIERARCHY
ROOT Hips
{
	OFFSET -3.958830 18.904000 13.208200
	CHANNELS 6 Xposition Yposition Zposition Zrotation Yrotation Xrotation 
	JOINT LHipJoint
	{
		OFFSET 0.000000 0.000000 0.000000
		CHANNELS 3 Zrotation Yrotation Xrotation
		JOINT LeftUpLeg
		{
			OFFSET 1.800000 -1.400000 0.085000
			CHANNELS 3 Zrotation Yrotation Xrotation
			JOINT LeftLeg
			{
				OFFSET 2.215000 -6.000000 0.000000
				CHANNELS 3 Zrotation Yrotation Xrotation
				JOINT LeftFoot
				{
					OFFSET 2.500000 -6.900000 0.000000
					CHANNELS 3 Zrotation Yrotation Xrotation
					JOINT LeftToeBase
					{
						OFFSET 0.200000 -0.500000 1.950000
						CHANNELS 3 Zrotation Yrotation Xrotation
						End Site
						{
							OFFSET 0.000000 0.000000 0.000000
						}
					}
				}
			}
		}
	}
	JOINT RHipJoint
	{
		OFFSET 0.000000 0.000000 0.000000
		CHANNELS 3 Zrotation Yrotation Xrotation
		JOINT RightUpLeg
		{
			OFFSET -1.800000 -1.400000 0.085000
			CHANNELS 3 Zrotation Yrotation Xrotation
			JOINT RightLeg
			{
				OFFSET -2.215000 -6.000000 0.000000
				CHANNELS 3 Zrotation Yrotation Xrotation
				JOINT RightFoot
				{
					OFFSET -2.500000 -6.900000 0.000000
					CHANNELS 3 Zrotation Yrotation Xrotation
					JOINT RightToeBase
					{
						OFFSET -0.200000 -0.500000 1.950000
						CHANNELS 3 Zrotation Yrotation Xrotation
						End Site
						{
							OFFSET 0.000000 0.000000 0.000000
						}
					}
				}
			}
		}
	}
	JOINT LowerBack
	{
		OFFSET 0.000000 0.000000 0.000000
		CHANNELS 3 Zrotation Yrotation Xrotation
		JOINT Spine
		{
			OFFSET -0.087000 1.940000 -0.288900
			CHANNELS 3 Zrotation Yrotation Xrotation
			JOINT Spine1
			{
				OFFSET 0.000000 1.950000 0.060000
				CHANNELS 3 Zrotation Yrotation Xrotation
				JOINT Neck
				{
					OFFSET 0.000000 0.000000 0.000000
					CHANNELS 3 Zrotation Yrotation Xrotation
					JOINT Neck1
					{
						OFFSET 0.000000 1.600000 0.340000
						CHANNELS 3 Zrotation Yrotation Xrotation
						JOINT Head
						{
							OFFSET 0.000000 1.667000 -0.240000
							CHANNELS 3 Zrotation Yrotation Xrotation
							End Site
							{
								OFFSET 0.000000 0.000000 0.000000
							}
						}
					}
				}
				JOINT LeftShoulder
				{
					OFFSET 0.000000 0.000000 0.000000
					CHANNELS 3 Zrotation Yrotation Xrotation
					JOINT LeftArm
					{
						OFFSET 2.700000 1.550000 -0.730000
						CHANNELS 3 Zrotation Yrotation Xrotation
						JOINT LeftForeArm
						{
							OFFSET 5.450000 0.000000 0.000000
							CHANNELS 3 Zrotation Yrotation Xrotation
							JOINT LeftHand
							{
								OFFSET 3.450000 0.000000 0.000000
								CHANNELS 3 Zrotation Yrotation Xrotation
								JOINT LeftHandIndex1
								{
									OFFSET 0.750000 0.000000 0.000000
									CHANNELS 3 Zrotation Yrotation Xrotation
									End Site
									{
										OFFSET 0.000000 0.000000 0.000000
									}
								}
							}
						}
					}
				}
				JOINT RightShoulder
				{
					OFFSET 0.000000 0.000000 0.000000
					CHANNELS 3 Zrotation Yrotation Xrotation
					JOINT RightArm
					{
						OFFSET -2.700000 1.550000 -0.730000
						CHANNELS 3 Zrotation Yrotation Xrotation
						JOINT RightForeArm
						{
							OFFSET -5.450000 0.000000 0.000000
							CHANNELS 3 Zrotation Yrotation Xrotation
							JOINT RightHand
							{
								OFFSET -3.450000 0.000000 0.000000
								CHANNELS 3 Zrotation Yrotation Xrotation
								JOINT RightHandIndex1
								{
									OFFSET -0.750000 0.000000 0.000000
									CHANNELS 3 Zrotation Yrotation Xrotation
									End Site
									{
										OFFSET 0.000000 0.000000 0.000000
									}
								}
							}
						}
					}
				}
			}
		}
	}
}
MOTION
Frames: 13
Frame Time: 0.016667
0.580090 16.972270 -2.497570 2.885956 23.611309 6.681327 -14.932582 12.431811 3.187114 3.498598 -5.337109 -23.918594 -4.207915 6.153554 27.789899 -1.240066 5.600436 2.779736 0.606460 0.253240 0.270180 18.511312 -11.766877 2.275996 -12.559442 -0.003254 -24.956553 3.750321 -8.490620 30.939114 -0.104788 -5.371935 2.485997 0.639770 0.886950 0.302070 -4.820348 0.441004 -7.170801 15.866632 3.925033 7.956736 -1.623836 3.598753 13.944047 -2.082278 0.108808 -7.422072 -1.977674 -12.829169 28.854195 -5.785570 -12.430020 -7.275480 4.104439 -21.814077 -0.762258 -42.744665 -63.614053 32.251074 45.396413 -59.732796 -25.986572 -3.610185 1.479232 0.334680 0.643800 -0.447000 0.398690 -0.497129 21.968797 5.379333 51.966285 35.337052 11.108239 75.399821 55.375685 31.339735 1.685237 -2.070276 -0.577570 0.675610 0.099420 -0.147100 
0.598780 16.916720 -2.502650 2.995478 24.729400 5.828655 -14.817899 12.225925 3.149510 3.331859 -5.461740 -23.587585 -3.830108 6.278811 29.651601 -1.282922 5.838883 2.660597 0.696400 0.355380 0.331550 18.630908 -12.028538 2.255791 -12.731787 -0.121633 -24.892141 2.602015 -8.684395 33.379008 -0.208806 -5.701512 2.348528 0.718250 0.854550 0.305700 -5.233993 1.196868 -7.242816 16.930451 4.776984 9.404705 -1.651940 4.652653 15.254320 -1.330656 0.460940 -9.300693 -0.919641 -13.622093 28.970608 -5.570160 -12.827270 -9.361910 3.848537 -18.594628 3.744364 -51.385053 -73.727051 41.493931 47.860668 -60.070541 -29.775670 -3.841569 1.348888 0.384310 0.619630 -0.406250 0.406970 -1.171051 18.954229 3.288876 53.281174 36.334340 11.227330 76.286017 53.636152 30.444448 1.645831 -2.129123 -0.580520 0.715200 0.081630 -0.167870 
0.643190 16.814410 -2.526520 2.887773 26.865638 4.748922 -14.744029 11.932658 3.190110 3.120294 -5.954222 -23.716759 -3.299059 6.405103 32.499405 -1.201755 6.152433 2.528015 0.756760 0.438420 0.360800 18.696204 -12.365604 2.265122 -12.987514 -0.462839 -24.829940 1.554856 -9.109241 36.229059 -0.333679 -6.164958 2.175515 0.751020 0.806900 0.320910 -5.558462 2.204626 -7.514058 18.705742 5.998938 10.128475 -1.083870 6.015059 19.317605 -0.833209 0.591715 -12.390924 0.009988 -14.837975 28.529794 -6.020870 -13.081750 -9.327030 3.921515 -16.472060 13.818888 -70.061383 -88.893564 57.720014 47.715403 -66.911126 -34.797660 -4.560711 1.923368 0.375630 0.600930 -0.366210 0.433420 -1.529411 17.233940 0.372192 52.670878 37.353442 8.658167 79.308585 50.449072 28.697839 1.631751 -2.229106 -0.536670 0.681830 0.031180 -0.157400 
0.667240 16.710920 -2.554630 3.451386 28.567079 3.564532 -14.863911 11.992794 3.231754 2.210359 -6.293628 -23.679463 -2.140998 6.476454 35.537334 -1.154737 6.538069 2.351560 0.822180 0.510610 0.453540 18.595594 -12.236269 2.204115 -14.260911 -0.432322 -24.378168 1.641246 -9.890956 39.464629 -0.478066 -6.668667 1.975100 0.791740 0.717960 0.284430 -5.264173 1.827392 -7.478781 18.449584 5.940032 10.690242 -0.895352 5.765380 21.621694 -0.938530 0.951368 -11.858796 0.217390 -15.176496 29.314239 -5.576450 -12.981670 -11.456660 4.567480 -20.660537 14.434560 -83.956785 -89.756593 71.354462 52.145988 -72.360124 -39.515447 -4.489569 2.220717 0.451180 0.525100 -0.296650 0.411420 -2.336808 20.814445 0.759530 49.917184 39.199990 6.769129 81.528739 52.793615 30.589405 1.664927 -2.117740 -0.542830 0.708170 -0.005210 -0.194920 
0.686400 16.602370 -2.583880 4.233606 30.007069 2.245218 -14.959394 12.030775 3.297282 1.217837 -6.788896 -23.534951 -1.419919 6.760432 39.048337 -1.254047 7.198766 2.062414 0.933050 0.604350 0.633890 18.543544 -12.023505 2.107635 -15.779439 -0.366248 -23.664462 1.852663 -10.777681 42.526488 -0.667095 -7.195352 1.733200 0.906000 0.651100 0.275340 -5.074884 1.324084 -7.422021 17.953081 5.071608 12.320473 -1.952705 4.962846 22.633778 -0.366445 1.204999 -10.576982 0.395153 -13.952020 29.394197 -6.575600 -11.122340 -15.462850 5.207100 -23.337907 12.468544 -92.340517 -88.864400 81.426770 54.135403 -74.648936 -41.149259 -4.492954 2.209940 0.625710 0.483490 -0.199770 0.373320 -4.406021 22.666174 0.789647 48.196779 42.315922 7.438347 86.460029 55.879768 35.136500 1.668057 -1.920125 -0.632950 0.822090 -0.010140 -0.303710 
0.692290 16.492980 -2.622830 4.777108 31.414378 1.185948 -15.027232 11.986572 3.451593 0.203835 -7.666174 -24.219644 -0.318310 6.853014 43.151312 -1.226416 7.845330 1.727970 1.017660 0.679750 0.750880 18.524620 -11.797010 2.056559 -16.808044 -0.279713 -23.655929 1.730330 -11.649372 45.933518 -0.844036 -7.759343 1.469219 0.957390 0.529990 0.312850 -4.973055 0.888808 -7.522782 17.770174 4.241069 14.535705 -1.665688 4.039421 23.173271 -1.023173 0.958082 -9.820066 -0.309110 -12.804252 29.786933 -7.100570 -9.794770 -18.168940 7.131498 -25.166733 11.318794 85.242297 -88.379063 -93.572170 59.292879 -74.777846 -43.831997 -4.519534 2.131149 0.718180 0.430540 -0.116850 0.303790 -5.292115 24.090164 0.715628 45.062268 43.669114 7.199175 94.007612 59.442565 42.517491 1.773076 -1.713218 -0.611660 0.787080 0.001900 -0.378820 
0.699260 16.416220 -2.667980 5.338477 31.098069 0.486994 -15.026891 11.824169 3.634416 -0.254425 -8.509201 -24.970913 -0.636921 7.568227 46.494334 -1.170837 8.536687 1.410237 1.039040 0.673380 0.849230 18.560717 -11.707026 2.050865 -17.005038 -0.015986 -24.906198 -0.228386 -11.405048 49.321677 -0.958622 -8.133362 1.281477 0.961260 0.444620 0.356150 -4.999781 0.891638 -7.737347 18.024055 4.111731 16.823203 -1.519816 3.905375 23.833144 -1.574834 0.656020 -9.852033 -0.889992 -11.826097 30.478676 -8.657750 -8.457540 -19.527320 8.954342 -26.273233 12.084979 89.508034 -82.041847 -94.086809 62.136266 -72.133201 -43.347805 -4.688116 2.068271 0.790800 0.410940 -0.058560 0.225750 -6.133318 24.995661 0.069966 41.797709 45.250570 6.431638 96.698395 62.971640 47.022162 1.903289 -1.437895 -0.610260 0.748260 0.029490 -0.451730 
0.691570 16.351780 -2.716160 5.502371 31.080376 -0.525195 -14.946095 11.529140 3.893603 0.043635 -9.746500 -25.345057 -1.603554 8.204215 48.998847 -1.109210 9.056411 1.208108 1.094220 0.753600 0.922310 18.631199 -11.941331 2.089670 -16.455549 -0.584709 -26.239752 -2.905533 -10.853781 52.277257 -1.084997 -8.422701 1.168109 1.015350 0.411810 0.348430 -5.298727 1.559299 -8.333681 18.748154 4.406782 21.014735 0.639495 4.460692 22.847555 -2.886197 1.031812 -10.776919 0.138842 -11.229736 31.145033 -9.028100 -7.102570 -21.008180 11.794188 -24.303108 14.690027 101.436365 -69.914168 -104.681751 52.479708 -70.866642 -39.019506 -6.106839 2.384367 0.835910 0.397810 -0.000660 0.225720 -6.179295 22.939778 -2.192642 38.041666 45.974051 4.685077 98.436695 62.165242 47.850145 1.805502 -1.497303 -0.622970 0.790720 -0.001430 -0.476100 
0.687460 16.317570 -2.755020 5.880232 29.889103 -0.688881 -15.127294 12.011419 3.918809 -0.227374 -9.907184 -26.022481 -1.617425 8.668376 50.430334 -1.034596 9.485115 1.075723 1.051870 0.708110 0.894770 18.551168 -11.130624 1.895562 -16.619533 -0.116078 -27.044517 -3.920965 -10.517953 54.468711 -1.109292 -8.724815 1.076234 1.009920 0.474060 0.381570 -4.696841 -0.664228 -7.673311 16.976138 1.984965 20.557531 -0.944409 0.952210 17.679796 -5.614454 0.717622 -2.694643 -2.927622 -10.233745 30.250745 -9.879480 -6.512610 -19.490030 14.078072 -35.300476 -8.457592 -8.907602 -72.394751 11.714335 58.638067 -61.525209 -33.862350 -4.504903 1.967291 0.785300 0.472850 -0.045120 0.218340 -5.513908 34.989282 3.044812 31.983336 44.211595 4.054833 104.390529 67.367065 58.305129 2.182809 -0.725767 -0.636780 0.784700 0.032260 -0.471910 
0.694620 16.317960 -2.794710 6.288533 30.354235 -0.657416 -15.037404 11.674627 3.723601 -1.592886 -9.287023 -25.872325 -0.358703 8.306296 50.415540 -0.972118 9.411149 1.152076 0.944230 0.608490 0.756200 18.682941 -11.202101 2.087163 -18.432752 0.838093 -27.492934 -1.713723 -11.644803 55.063822 -1.084132 -9.084625 0.986045 0.950050 0.586540 0.402000 -5.037172 0.198759 -7.707488 19.121952 2.391911 21.211769 -1.489495 1.266206 19.697660 -5.696648 0.049355 -3.595056 -2.703593 -9.193627 28.922444 -9.447470 -6.660060 -16.980190 14.550617 -35.223236 -4.146075 27.609393 -70.901594 -19.013040 55.135227 -56.102905 -28.291730 -4.588302 2.392028 0.670230 0.557800 -0.145790 0.224310 -5.180962 33.884559 0.767624 24.763550 41.121380 0.336510 116.160848 72.574850 82.592958 2.155323 0.869881 -0.626420 0.757050 0.093300 -0.412630 
0.700830 16.370440 -2.828170 6.428305 30.076421 -0.504098 -14.947117 11.504928 3.518930 -2.526682 -8.550911 -25.420938 0.572649 7.836982 49.193980 -0.973286 9.082577 1.298209 0.860030 0.521750 0.654680 18.797926 -11.185296 2.313202 -20.246631 1.676635 -28.083375 1.112761 -12.931756 54.622845 -1.060743 -9.245080 0.958286 0.881030 0.635300 0.378210 -5.332934 0.664227 -7.725140 21.538934 1.276044 21.990596 -3.785973 0.480171 19.757605 -5.845958 -1.325187 -3.593301 -4.859752 -7.781117 29.411734 -8.259490 -7.113580 -16.447920 14.987119 -35.943438 -3.287842 31.938240 -66.704783 -21.082274 52.056704 -51.061526 -24.184570 -4.580609 2.483525 0.647290 0.555370 -0.190450 0.223560 -5.265965 34.415876 -0.495805 20.486036 40.368602 -2.782712 113.789502 78.736115 96.062380 1.730652 2.764444 -0.630720 0.761360 0.135510 -0.374400 
0.713250 16.430290 -2.863380 6.257151 29.214943 0.174200 -14.926858 11.546507 3.399045 -3.143083 -7.939955 -25.340568 1.204066 7.373336 47.135662 -0.965060 8.652953 1.521649 0.699640 0.318710 0.573070 18.819421 -10.945633 2.654892 -21.858952 2.501867 -29.803881 4.000479 -14.307342 54.360825 -1.027211 -9.432237 0.939556 0.737910 0.698510 0.340990 -5.342850 0.434371 -7.831578 22.312611 -0.198979 22.717826 -4.346801 -0.610420 20.067700 -6.137904 -2.434642 -5.386797 -6.746610 -6.640195 28.996229 -8.448820 -6.809030 -14.677260 16.215247 -34.700191 -4.556168 32.355024 -59.750353 -18.844187 50.595154 -48.357199 -21.844829 -4.570151 2.470961 0.628960 0.569020 -0.250750 0.201010 -5.743716 34.238940 4.073537 11.548618 39.209331 2.436844 -121.915195 78.226840 -125.272185 1.530651 -1.316669 -0.672710 0.762230 0.180830 -0.361070 
0.730000 16.505550 -2.878780 5.633718 28.379468 0.887789 -14.908427 11.571770 3.234254 -2.716907 -7.461641 -24.748593 0.662884 7.025108 43.784340 -0.985451 7.998702 1.797037 0.607200 0.235510 0.517930 18.845431 -10.835304 2.876828 -22.120235 2.528355 -31.682587 5.385865 -14.947428 53.737990 -0.991521 -9.450510 0.965164 0.653580 0.722160 0.317380 -5.353868 0.413875 -7.792663 23.120395 -1.273447 22.311964 -4.848187 -1.299776 17.948444 -5.589980 -3.066130 -4.930903 -7.807203 -5.558831 29.714354 -9.081920 -5.949490 -12.922940 16.278702 -34.816816 -3.759301 26.840065 -55.236064 -14.486838 47.964584 -45.303089 -19.727189 -4.550317 2.515683 0.569680 0.585900 -0.277120 0.196890 -6.667340 34.081433 1.102736 12.544716 37.406618 -5.990178 -80.211539 88.570969 -73.035642 0.576817 4.489265 -0.660290 0.736450 0.179210 -0.331020 
